<svg width="125" height="120" viewBox="0 0 125 120" fill="none" xmlns="http://www.w3.org/2000/svg">
<g id="Box">
<g id="Group">
<path id="Vector" fill-rule="evenodd" clip-rule="evenodd" d="M67.2166 119.17C108.033 113.153 114.304 104.185 120.229 94.2951C131.698 75.1605 121.762 40.8334 98.2239 41.0179C75.2624 45.7785 79.9884 7.11729 35.8635 19.647C8.21045 27.5084 -4.12332 49.8129 2.06662 71.2298C8.26808 92.6468 26.3999 125.176 67.2166 119.17Z" fill="#E5E5E5"/>
</g>
<g id="Group_2">
<path id="Vector_2" d="M63.1357 29.9172L26.7108 42.9887L16.7861 53.0171L24.6475 56.8671L25.3852 87.2058L63.8965 100.761L102.592 87.5171L104.218 57.8469L110.799 53.4897L102.523 43.3345L63.1357 29.9172Z" fill="white"/>
</g>
<g id="Group_3">
<path id="Vector_3" fill-rule="evenodd" clip-rule="evenodd" d="M63.7936 101.326L30.1235 89.5575V60.0487L55.9553 68.8668L63.1365 60.0487L63.8051 99.8165V101.326H63.7936Z" fill="#F5F5F5"/>
</g>
<g id="Group_4">
<path id="Vector_4" fill-rule="evenodd" clip-rule="evenodd" d="M22.0204 23.3872C21.2943 23.3747 20.7081 23.941 20.6958 24.6556L20.5614 32.435C20.5491 33.1496 21.1269 33.736 21.8414 33.7484C22.5675 33.7609 23.1537 33.1946 23.1661 32.48L23.3005 24.7005C23.313 23.9745 22.735 23.3996 22.0204 23.3872ZM13.1399 39.6044L5.30282 39.4691C4.57674 39.4565 3.99052 40.0228 3.97818 40.7374C3.96583 41.4519 4.54366 42.0383 5.25822 42.0507L13.0953 42.1861C13.8214 42.1986 14.4076 41.6323 14.42 40.9178C14.444 40.1919 13.866 39.617 13.1399 39.6044ZM10.2662 27.7726C9.76785 27.2567 8.93804 27.2424 8.42217 27.7407C7.9063 28.239 7.89217 29.0573 8.39071 29.5617L15.2589 36.4015C15.7574 36.9059 16.5872 36.9202 17.1029 36.4334C17.6188 35.935 17.6329 35.1167 17.1346 34.6009L10.2662 27.7726Z" fill="#EC0000"/>
</g>
<g id="Group_5">
<path id="Vector_5" fill-rule="evenodd" clip-rule="evenodd" d="M110.8 96.0706C109.532 96.0706 108.494 95.0447 108.494 93.7883C108.494 92.5319 109.52 91.506 110.8 91.506C112.067 91.506 113.105 92.5319 113.105 93.7883C113.105 95.0447 112.079 96.0706 110.8 96.0706ZM110.8 94.7681C111.341 94.7681 111.791 94.3301 111.791 93.7883C111.791 93.2465 111.353 92.8085 110.8 92.8085C110.258 92.8085 109.808 93.2465 109.808 93.7883C109.82 94.3301 110.258 94.7681 110.8 94.7681Z" fill="#0D4F80"/>
</g>
<g id="Group_6">
<path id="Vector_6" fill-rule="evenodd" clip-rule="evenodd" d="M16.7866 70.7803L15.3803 72.1635L13.4553 70.2616L11.5303 72.175L10.124 70.7803L12.049 68.8783L10.124 66.9649L11.5303 65.5817L13.4553 67.4836L15.3803 65.5817L16.7866 66.9649L14.8616 68.8783L16.7866 70.7803Z" fill="white"/>
</g>
<g id="Group_7">
<path id="Vector_7" d="M65.3034 69.0857V100.762L102.593 89.4307V58.2389L70.894 67.4604L64.6118 59.772L65.3034 69.0857Z" fill="#F5F5F5"/>
</g>
<g id="Group_8">
<path id="Vector_8" d="M72.4266 68.9474L102.258 59.0227L72.4612 71.5178C71.6082 71.8752 70.6169 71.5178 70.1789 70.6994L64.9688 60.7056L72.4266 68.9474Z" fill="#0D4F80"/>
</g>
<g id="Group_9">
<path id="Vector_9" d="M63.1244 60.7057L57.9028 70.6995C57.4763 71.5294 56.485 71.8868 55.6204 71.5179L25.835 59.0343L55.6665 68.9589L63.1244 60.7057Z" fill="#0D4F80"/>
</g>
<g id="Group_10">
<g id="Group_11">
<path id="Vector_10" d="M24.6475 42.9896L64.323 28.7308L103.491 42.9896L64.323 56.868L24.6475 42.9896Z" fill="#C6EDF6"/>
</g>
<g id="Group_12">
<path id="Vector_11" d="M64.3229 58.0206C64.1961 58.0206 64.0693 57.9976 63.9425 57.9515L24.2669 44.0731C23.8059 43.9117 23.4946 43.4737 23.4946 42.9896C23.4946 42.5054 23.7943 42.0674 24.2554 41.8945L63.9309 27.6473C64.1845 27.5551 64.4612 27.5551 64.7148 27.6473L103.883 41.8945C104.344 42.0559 104.644 42.4939 104.644 42.978C104.644 43.4622 104.333 43.9002 103.872 44.0616L64.7032 57.9515C64.588 57.9976 64.4497 58.0206 64.3229 58.0206ZM28.0939 42.978L64.3229 55.6576L100.091 42.978L64.3229 29.9642L28.0939 42.978Z" fill="#0F2B4A"/>
</g>
<g id="Group_13">
<path id="Vector_12" d="M64.323 103.114C64.1962 103.114 64.0694 103.09 63.9426 103.044L24.267 89.166C23.6676 88.9585 23.3449 88.3015 23.5639 87.7021C23.7829 87.1027 24.4399 86.7914 25.0278 86.9989L64.323 100.751L103.111 87.0104C103.71 86.7914 104.367 87.1142 104.586 87.7136C104.805 88.313 104.483 88.97 103.883 89.189L64.7033 103.044C64.5881 103.09 64.4497 103.114 64.323 103.114Z" fill="#0F2B4A"/>
</g>
<g id="Group_14">
<path id="Vector_13" d="M55.7354 69.3167C55.6086 69.3167 55.4818 69.2937 55.355 69.2476L15.5642 55.1848C15.2184 55.058 14.9418 54.7813 14.838 54.424C14.7343 54.0667 14.8034 53.6863 15.034 53.3866L23.7368 42.2862C24.1287 41.779 24.8549 41.6983 25.3505 42.0902C25.8462 42.4821 25.9384 43.2083 25.5465 43.704L17.835 53.5479L55.3204 66.8039L63.3893 56.1876C63.7696 55.6804 64.4958 55.5882 65.003 55.9686C65.5102 56.349 65.6139 57.0752 65.222 57.5824L56.646 68.8672C56.4385 69.1554 56.0927 69.3167 55.7354 69.3167Z" fill="#0F2B4A"/>
</g>
<g id="Group_15">
<path id="Vector_14" d="M55.7354 69.3167C55.6086 69.3167 55.4818 69.2937 55.355 69.2476L15.5642 55.1848C15.2184 55.058 14.9418 54.7813 14.838 54.424C14.7343 54.0667 14.8034 53.6863 15.034 53.3866L23.7368 42.2862C24.1287 41.779 24.8549 41.6983 25.3505 42.0902C25.8462 42.4821 25.9384 43.2083 25.5465 43.704L17.835 53.5479L55.3204 66.8039L63.3893 56.1876C63.7696 55.6804 64.4958 55.5882 65.003 55.9686C65.5102 56.349 65.6139 57.0752 65.222 57.5824L56.646 68.8672C56.4385 69.1554 56.0927 69.3167 55.7354 69.3167Z" fill="#0F2B4A"/>
</g>
<g id="Group_16">
<path id="Vector_15" d="M72.4846 69.3169C72.1273 69.3169 71.793 69.1555 71.5625 68.8673L62.9865 57.5825C62.6061 57.0753 62.6983 56.3491 63.2055 55.9688C63.7127 55.5884 64.4388 55.6806 64.8192 56.1878L72.888 66.804L110.373 53.5481L102.662 43.7042C102.27 43.2085 102.362 42.4823 102.858 42.0904C103.365 41.6985 104.08 41.7907 104.472 42.2863L113.175 53.3867C113.405 53.6749 113.474 54.0668 113.37 54.4242C113.267 54.7815 113.002 55.0697 112.644 55.1849L72.8535 69.2477C72.7382 69.2938 72.6114 69.3169 72.4846 69.3169Z" fill="#0F2B4A"/>
</g>
<g id="Group_17">
<path id="Vector_16" d="M24.6473 70.0312C24.0133 70.0312 23.4946 69.5125 23.4946 68.8786V57.8473C23.4946 57.2134 24.0133 56.6946 24.6473 56.6946C25.2813 56.6946 25.8 57.2134 25.8 57.8473V68.8786C25.8 69.5125 25.2813 70.0312 24.6473 70.0312Z" fill="#0F2B4A"/>
</g>
<g id="Group_18">
<path id="Vector_17" d="M24.6473 89.2351C24.0133 89.2351 23.4946 88.7164 23.4946 88.0824V79.9098C23.4946 79.2759 24.0133 78.7571 24.6473 78.7571C25.2813 78.7571 25.8 79.2759 25.8 79.9098V88.0824C25.8 88.7164 25.2813 89.2351 24.6473 89.2351Z" fill="#0F2B4A"/>
</g>
<g id="Group_19">
<path id="Vector_18" d="M64.3226 103.114C63.6886 103.114 63.1699 102.595 63.1699 101.961V28.7308C63.1699 28.0968 63.6886 27.5781 64.3226 27.5781C64.9566 27.5781 65.4753 28.0968 65.4753 28.7308V101.961C65.4753 102.595 64.9566 103.114 64.3226 103.114Z" fill="#0F2B4A"/>
</g>
<g id="Group_20">
<path id="Vector_19" d="M103.491 89.235C102.857 89.235 102.338 88.7163 102.338 88.0823V57.8473C102.338 57.2134 102.857 56.6946 103.491 56.6946C104.125 56.6946 104.644 57.2134 104.644 57.8473V88.0823C104.644 88.7163 104.125 89.235 103.491 89.235Z" fill="#0F2B4A"/>
</g>
</g>
<g id="Group_21">
<path id="Vector_20" fill-rule="evenodd" clip-rule="evenodd" d="M122.845 35.5424L121.531 37.0063L119.502 35.2081L117.681 37.2138L116.206 35.8997L118.027 33.894L115.998 32.0958L117.324 30.6319L119.352 32.4301L121.162 30.4244L122.638 31.7385L120.816 33.7442L122.845 35.5424Z" fill="#0F2B4A"/>
<path id="Vector_21" d="M117.716 37.8249L115.595 35.9345L117.416 33.9288L115.387 32.1306L117.289 30.0212L119.318 31.8194L121.128 29.8137L123.249 31.7041L121.427 33.7098L123.456 35.508L121.554 37.6174L119.525 35.8192L117.716 37.8249ZM116.828 35.8769L117.658 36.6146L119.468 34.6089L121.485 36.4071L122.234 35.5772L120.205 33.779L122.027 31.7733L121.197 31.0356L119.387 33.0413L117.358 31.2431L116.609 32.073L118.638 33.8712L116.828 35.8769Z" fill="#0F2B4A"/>
</g>
<g id="Group_22">
<path id="Vector_22" fill-rule="evenodd" clip-rule="evenodd" d="M53.1517 20.7934L52.4049 21.6254L51.2518 20.6034L50.2167 21.7433L49.3782 20.9965L50.4133 19.8566L49.2603 18.8346L50.0136 18.0026L51.1667 19.0246L52.1952 17.8846L53.0338 18.6315L51.9987 19.7714L53.1517 20.7934Z" fill="#0F2B4A"/>
<path id="Vector_23" d="M50.2364 22.0908L49.031 21.0164L50.0661 19.8765L48.9131 18.8545L49.994 17.6556L51.1471 18.6776L52.1756 17.5377L53.381 18.6121L52.3459 19.752L53.499 20.774L52.418 21.9729L51.265 20.9509L50.2364 22.0908ZM49.732 20.9837L50.2037 21.403L51.2322 20.263L52.3787 21.285L52.8045 20.8133L51.6515 19.7913L52.6866 18.6514L52.2149 18.2322L51.1864 19.3721L50.0333 18.3501L49.6075 18.8218L50.7605 19.8438L49.732 20.9837Z" fill="#0F2B4A"/>
</g>
<g id="Group_23">
<path id="Vector_24" fill-rule="evenodd" clip-rule="evenodd" d="M45.0181 14.6966L44.0795 15.7422L42.6304 14.4578L41.3295 15.8904L40.2756 14.9518L41.5765 13.5192L40.1274 12.2348L41.0743 11.1891L42.5234 12.4735L43.8161 11.0409L44.8699 11.9795L43.569 13.4121L45.0181 14.6966Z" fill="#0F2B4A"/>
<path id="Vector_25" d="M41.3546 16.327L39.8396 14.9767L41.1405 13.5441L39.6914 12.2597L41.0499 10.7529L42.499 12.0374L43.7917 10.6047L45.3066 11.955L44.0058 13.3877L45.4548 14.6721L44.0963 16.1788L42.6472 14.8944L41.3546 16.327ZM40.7206 14.9356L41.3134 15.4625L42.6061 14.0299L44.0469 15.3143L44.5821 14.7215L43.133 13.4371L44.4339 12.0044L43.8411 11.4775L42.5484 12.9101L41.0993 11.6257L40.5642 12.2185L42.0133 13.5029L40.7206 14.9356Z" fill="#0F2B4A"/>
</g>
<g id="Group_24">
<path id="Vector_26" fill-rule="evenodd" clip-rule="evenodd" d="M55.2176 5.97597L53.9035 7.43989L51.8748 5.64169L50.0535 7.64737L48.5781 6.3333L50.3993 4.32763L48.3706 2.52943L49.6962 1.06552L51.7249 2.86371L53.5347 0.858032L55.0101 2.1721L53.1888 4.17778L55.2176 5.97597Z" fill="#0F2B4A"/>
<path id="Vector_27" d="M50.0892 8.25826L47.9682 6.36785L49.7895 4.36217L47.7607 2.56398L49.6627 0.454555L51.6914 2.25275L53.5011 0.24707L55.6221 2.13748L53.8008 4.14316L55.8296 5.94136L53.9276 8.05078L51.8989 6.25258L50.0892 8.25826ZM49.2016 6.31022L50.0315 7.04794L51.8413 5.04226L53.8585 6.84045L54.6077 6.01052L52.579 4.21232L54.4002 2.20664L53.5703 1.46892L51.7606 3.4746L49.7318 1.6764L48.9826 2.50634L51.0113 4.30454L49.2016 6.31022Z" fill="#0F2B4A"/>
</g>
<g id="Group_25">
<path id="Vector_28" d="M85.2679 46.389C84.634 46.389 84.1153 45.8703 84.1153 45.2363V39.9224C84.1153 39.2884 84.634 38.7697 85.2679 38.7697C85.9019 38.7697 86.4206 39.2884 86.4206 39.9224V45.2363C86.4206 45.8703 85.9134 46.389 85.2679 46.389ZM85.2334 34.1589C84.6224 34.1589 84.1153 33.6748 84.0807 33.0639C84.0691 32.7872 84.0576 32.5221 84.0576 32.2455C84.0576 30.0554 84.4495 27.8883 85.2334 25.825C85.4639 25.2256 86.1209 24.9259 86.7203 25.1564C87.3197 25.387 87.6194 26.044 87.3889 26.6434C86.7088 28.4531 86.363 30.332 86.363 32.2455C86.363 32.4875 86.363 32.7296 86.3745 32.9601C86.4091 33.5941 85.9135 34.1359 85.2795 34.1589C85.2795 34.1589 85.2564 34.1589 85.2334 34.1589ZM118.373 27.6001C117.901 27.6001 117.463 27.312 117.29 26.8509C116.54 24.8106 115.411 22.9779 113.924 21.3987C113.486 20.9376 113.509 20.2114 113.97 19.7734C114.431 19.3354 115.157 19.3584 115.595 19.8195C117.301 21.6292 118.592 23.7271 119.457 26.0555C119.676 26.6549 119.376 27.312 118.777 27.531C118.638 27.5771 118.5 27.6001 118.373 27.6001ZM90.0055 21.5716C89.7173 21.5716 89.4291 21.4678 89.1986 21.2488C88.7375 20.8108 88.726 20.0731 89.1756 19.6235C90.8931 17.8484 92.9333 16.4536 95.2387 15.4969C95.8266 15.2548 96.5067 15.5315 96.7487 16.1194C96.9908 16.7072 96.7141 17.3873 96.1263 17.6294C94.1206 18.4708 92.3339 19.6812 90.8354 21.2373C90.6049 21.4563 90.3052 21.5716 90.0055 21.5716ZM109.129 17.8138C108.979 17.8138 108.817 17.7792 108.668 17.7216C108.449 17.6294 108.218 17.5256 107.987 17.445C106.189 16.7533 104.31 16.396 102.408 16.3845C101.774 16.3845 101.256 15.8542 101.267 15.2203C101.279 14.5863 101.832 14.1137 102.431 14.0791C104.61 14.0906 106.766 14.5056 108.817 15.2894C109.082 15.3932 109.336 15.4969 109.601 15.6122C110.189 15.8658 110.454 16.5459 110.201 17.1337C110.005 17.5487 109.578 17.8138 109.129 17.8138Z" fill="#0F2B4A"/>
</g>
</g>
</svg>
