<svg width="119" height="96" viewBox="0 0 119 96" fill="none" xmlns="http://www.w3.org/2000/svg">
<g id="Group">
<path id="Vector" fill-rule="evenodd" clip-rule="evenodd" d="M56.2557 95.1221C96.4628 99.1376 117.185 89.3782 118.421 65.8437C120.276 30.5414 89.0271 34.355 79.9271 25.0506C70.8251 15.7472 81.0208 28.9692 63.4938 9.68932C51.8081 -3.16359 36.2384 -3.2296 16.7835 9.49229C1.09013 22.0952 -0.607635 38.6226 11.6902 59.0747C23.9881 79.5277 38.8433 91.5435 56.2557 95.1221Z" fill="#E5E5E5"/>
<path id="Vector_2" fill-rule="evenodd" clip-rule="evenodd" d="M27.0831 59.8992C27.081 61.5294 27.08 62.8626 27.078 64.2368C27.074 67.9534 27.0709 71.5169 27.0679 75.0944L62.0316 75.0954C62.806 75.1004 63.4304 75.7305 63.4253 76.5006V78.3619C63.4142 82.5465 66.2421 86.2101 70.3066 87.2772C71.2259 87.5133 72.1908 87.5133 73.1102 87.2772C74.0457 87.0342 74.9123 86.6481 75.6978 86.1551C78.1659 84.4868 79.734 81.6824 79.74 78.5829V26.2571V17.2838C79.7441 14.5324 81.0405 12.069 83.0727 10.4828H79.2687H54.972L27.0861 57.9249C27.0851 58.4499 27.0841 59.084 27.0831 59.8992Z" fill="white"/>
<path id="Vector_3" fill-rule="evenodd" clip-rule="evenodd" d="M27.0922 51.2806V52.4618C27.0912 53.3099 27.0902 54.4061 27.0882 55.9123V56.2674C27.0872 56.6944 27.0872 57.2025 27.0862 57.9246L54.972 10.4825H37.9164C35.7088 10.4865 33.6583 11.1386 31.9291 12.2478C29.014 14.2351 27.0983 17.5686 27.0922 21.3512V36.6474C27.0922 37.0265 26.854 37.3465 26.5186 37.4796C26.4841 37.5096 26.4435 37.5306 26.405 37.5546V41.1491C26.8672 41.1931 27.2341 41.5652 27.2341 42.0322V43.8705C27.2341 44.3386 26.8672 44.7106 26.405 44.7537V50.4255C26.7973 50.5265 27.0922 50.8626 27.0922 51.2806Z" fill="#E9F4F7"/>
<path id="Vector_4" fill-rule="evenodd" clip-rule="evenodd" d="M90.1647 11.7756L89 11.5335C88.7801 11.5085 88.5551 11.4955 88.328 11.4955C88.1486 11.4855 87.9712 11.4855 87.7918 11.4955C86.7407 11.5886 85.7839 11.9546 84.9619 12.4977C83.5236 13.5588 82.5952 15.2281 82.5698 17.1004V24.0914H94.3518V17.3584C94.3467 14.746 92.5912 12.5337 90.1647 11.7756Z" fill="#0D4F80"/>
<path id="Vector_5" fill-rule="evenodd" clip-rule="evenodd" d="M27.2339 43.8699V42.0329C27.2339 41.5649 26.868 41.1929 26.4058 41.1489C26.3764 41.1469 26.3521 41.1329 26.3227 41.1329C25.8189 41.1329 25.4094 41.5359 25.4094 42.0329V43.8699C25.4094 44.3669 25.8189 44.7699 26.3227 44.7699C26.3521 44.7699 26.3764 44.7559 26.4058 44.7529C26.868 44.7099 27.2339 44.3379 27.2339 43.8699Z" fill="#0F2B4A"/>
<path id="Vector_6" fill-rule="evenodd" clip-rule="evenodd" d="M69.0212 36.0961H37.9415C37.4378 36.0961 37.0293 36.4991 37.0293 36.9962C37.0293 37.4933 37.4378 37.8963 37.9415 37.8963H69.0212C69.525 37.8963 69.9324 37.4933 69.9324 36.9962C69.9324 36.4991 69.525 36.0961 69.0212 36.0961ZM72.6124 23.1938H37.9415C37.4378 23.1938 37.0293 23.5969 37.0293 24.094C37.0293 24.5911 37.4378 24.9941 37.9415 24.9941H72.6124C73.1161 24.9941 73.5236 24.5911 73.5236 24.094C73.5236 23.5969 73.1161 23.1938 72.6124 23.1938Z" fill="#0D4F80"/>
<path id="Vector_7" fill-rule="evenodd" clip-rule="evenodd" d="M51.6524 48.998H37.9416C37.4378 48.998 37.0283 49.4011 37.0283 49.8982C37.0283 50.3953 37.4378 50.7983 37.9416 50.7983H51.6524C52.1561 50.7983 52.5646 50.3953 52.5646 49.8982C52.5646 49.4011 52.1561 48.998 51.6524 48.998ZM51.6524 61.8999H37.9416C37.4378 61.8999 37.0283 62.3029 37.0283 62.8C37.0283 63.2971 37.4378 63.7001 37.9416 63.7001H51.6524C52.1561 63.7001 52.5646 63.2971 52.5646 62.8C52.5646 62.3029 52.1561 61.8999 51.6524 61.8999Z" fill="#A6CED7"/>
<path id="Vector_8" fill-rule="evenodd" clip-rule="evenodd" d="M6.8471 73.9712L5.64396 75.1582L3.67557 73.2152L1.70313 75.1612L0.5 73.9732L2.47244 72.0282L0.503041 70.0852L1.70617 68.8992L3.67456 70.8422L5.64599 68.8962L6.85014 70.0832L4.87769 72.0292L6.8471 73.9712Z" fill="#0F2B4A"/>
<path id="Vector_9" fill-rule="evenodd" clip-rule="evenodd" d="M109.741 28.7104C107.995 28.7104 106.582 27.3094 106.582 25.5814C106.582 23.8544 107.995 22.4534 109.741 22.4534C111.488 22.4534 112.901 23.8544 112.901 25.5814C112.901 27.3094 111.488 28.7104 109.741 28.7104ZM109.741 26.9274C110.488 26.9274 111.095 26.3254 111.095 25.5814C111.095 24.8374 110.488 24.2364 109.741 24.2364C108.994 24.2364 108.387 24.8374 108.387 25.5814C108.387 26.3254 108.994 26.9274 109.741 26.9274Z" fill="#6EE3FF"/>
<path id="Vector_10" fill-rule="evenodd" clip-rule="evenodd" d="M88.4905 8.6571H87.5934L37.9144 8.68311C35.3277 8.68711 32.9255 9.45322 30.9064 10.7574C27.3639 13.0458 25.0144 17.0043 25.0073 21.515V36.8123C25.0073 37.3094 25.4158 37.7124 25.9206 37.7124C26.102 37.7124 26.2622 37.6464 26.4051 37.5554C26.4436 37.5304 26.4831 37.5094 26.5176 37.4794C26.7071 37.3144 26.8318 37.0803 26.8318 36.8123V21.516C26.8379 17.6244 28.8711 14.2119 31.9291 12.2476C33.6573 11.1385 35.7088 10.4864 37.9164 10.4834H54.9721L79.2688 10.4824H83.0718C81.0406 12.0686 79.7442 14.533 79.7401 17.2834V26.2577V78.5835C79.7341 81.682 78.166 84.4864 75.6979 86.1546C74.8465 86.7307 73.8897 87.1728 72.8498 87.4418C71.9304 87.6789 70.9655 87.6789 70.0462 87.4418C65.9817 86.3757 63.1538 82.7111 63.1649 78.5275V76.6662C63.171 75.8961 62.5456 75.266 61.7723 75.261L26.8085 75.26C26.8105 71.6815 26.8136 68.119 26.8176 64.4014C26.8196 63.0272 26.8207 61.695 26.8227 60.0638C26.8257 58.1275 26.8267 57.1693 26.8277 56.4332V56.0782C26.8298 54.5709 26.8308 53.4758 26.8318 52.6267V51.4455C26.8318 50.9484 26.4243 50.5453 25.9206 50.5453C25.8 50.5453 25.6864 50.5713 25.582 50.6134C25.2465 50.7464 25.0073 51.0664 25.0073 51.4455C25.0073 52.4626 25.0063 53.8938 25.0033 56.4302L25.0023 56.5552C25.0023 57.2763 25.0002 58.2325 24.9982 60.0618C24.9962 61.693 24.9942 63.0252 24.9932 64.3994C24.9901 68.06 24.9871 71.5715 24.984 75.095V75.26L16.2915 75.261C16.0705 75.261 15.8658 75.315 15.6803 75.406C15.213 75.6321 14.8887 76.1051 14.8887 76.6562V78.6295C14.8826 85.2185 20.2455 90.5643 26.8642 90.5693H70.5783C70.8875 90.5693 71.3649 90.5693 71.672 90.5233C72.2173 90.4733 72.7585 90.3833 73.2897 90.2523C74.6996 89.9262 75.998 89.3561 77.1545 88.6C80.4547 86.4417 82.5681 82.7391 82.5731 78.6295V26.2577V24.0914H94.352H95.7488H95.7548C96.0853 24.0914 96.3853 23.8744 96.6255 23.6833C96.9478 23.4273 97.1577 23.0382 97.1577 22.5972V17.3584C97.1769 12.5737 93.2979 8.67811 88.4905 8.6571Z" fill="#0F2B4A"/>
<path id="Vector_11" fill-rule="evenodd" clip-rule="evenodd" d="M90.1647 11.7756L89 11.5335C88.7801 11.5085 88.5551 11.4955 88.328 11.4955C88.1486 11.4855 87.9712 11.4855 87.7918 11.4955C86.7407 11.5886 85.7839 11.9546 84.9619 12.4977C83.5236 13.5588 82.5952 15.2281 82.5698 17.1004V24.0914H94.3518V17.3584C94.3467 14.746 92.5912 12.5337 90.1647 11.7756Z" fill="#0D4F80"/>
<path id="Vector_12" fill-rule="evenodd" clip-rule="evenodd" d="M86.3102 56.3121L81.8585 51.9204L77.4413 56.2781L75.703 54.5628L80.1202 50.2051L75.6686 45.8125L77.3977 44.1062L81.8494 48.4989L86.2656 44.1402L88.0049 45.8555L83.5867 50.2142L88.0384 54.6068L86.3102 56.3121ZM82.0674 32.8206C72.4747 32.8206 64.6985 40.4777 64.6985 49.9231C64.6985 59.3685 72.4747 67.0257 82.0674 67.0257C85.6686 67.0257 89.0125 65.9465 91.7867 64.1002C93.1438 63.1961 94.3612 62.1049 95.4092 60.8697C97.9219 57.9033 99.4372 54.0887 99.4372 49.9231C99.4372 40.4777 91.661 32.8206 82.0674 32.8206Z" fill="white"/>
<path id="Vector_13" fill-rule="evenodd" clip-rule="evenodd" d="M91.7871 64.0999C89.0129 65.9472 85.6691 67.0254 82.0678 67.0254C72.4742 67.0254 64.698 59.3682 64.698 49.9228C64.698 40.4784 72.4742 32.8203 82.0678 32.8203C91.6615 32.8203 99.4377 40.4784 99.4377 49.9228C99.4377 54.0885 97.9224 57.904 95.4087 60.8705C94.3617 62.1056 93.1443 63.1958 91.7871 64.0999ZM107.334 72.6182L96.7 62.1417C99.5401 58.8462 101.263 54.5855 101.263 49.9228C101.263 39.4833 92.6679 31.02 82.0678 31.02C75.4856 31.02 69.6808 34.2865 66.2234 39.2602C66.0683 39.4843 65.9295 39.7203 65.7845 39.9513C65.6244 40.2054 65.4592 40.4564 65.3112 40.7185C65.1764 40.9545 65.0558 41.2005 64.9311 41.4436C64.7922 41.7156 64.6534 41.9887 64.5267 42.2687C64.4182 42.5117 64.3168 42.7588 64.2185 43.0068C64.0999 43.3038 63.9874 43.6029 63.884 43.9069C63.8009 44.151 63.7219 44.396 63.6479 44.644C63.5516 44.9721 63.4675 45.3051 63.3874 45.6402C63.3327 45.8742 63.2749 46.1083 63.2283 46.3463C63.1543 46.7284 63.0985 47.1174 63.0478 47.5065C63.0225 47.7075 62.987 47.9055 62.9667 48.1086C62.91 48.7067 62.8745 49.3107 62.8745 49.9228C62.8745 50.5499 62.909 51.169 62.9688 51.7801C62.9901 51.9911 63.0306 52.1952 63.058 52.4032C63.1107 52.7993 63.1644 53.1953 63.2414 53.5834C63.2911 53.8324 63.358 54.0755 63.4178 54.3205C63.4989 54.6565 63.58 54.9926 63.6793 55.3206C63.7594 55.5857 63.8536 55.8447 63.9449 56.1048C64.0493 56.3998 64.1537 56.6948 64.2723 56.9839C64.3848 57.2569 64.5074 57.525 64.6321 57.792C64.7527 58.051 64.8763 58.3081 65.0091 58.5611C65.1561 58.8402 65.3102 59.1152 65.4693 59.3852C65.6011 59.6073 65.7359 59.8273 65.8758 60.0433C66.0592 60.3284 66.2498 60.6084 66.4484 60.8815C66.5802 61.0635 66.718 61.2415 66.8559 61.4185C67.0829 61.7086 67.314 61.9966 67.5583 62.2737C67.6779 62.4097 67.8036 62.5397 67.9272 62.6727C68.207 62.9738 68.4908 63.2698 68.7898 63.5519C68.875 63.6319 68.9642 63.7069 69.0503 63.7869C71.8873 66.3643 75.5089 68.1175 79.5298 68.6416C80.363 68.7506 81.2063 68.8256 82.0678 68.8256C86.1719 68.8256 89.9657 67.5475 93.0856 65.3871L103.876 76.0177C104.831 76.9579 106.377 76.9579 107.333 76.0187C107.334 76.0177 107.336 76.0157 107.337 76.0147C108.286 75.0756 108.284 73.5554 107.334 72.6182Z" fill="#EC0000"/>
<path id="Vector_14" fill-rule="evenodd" clip-rule="evenodd" d="M88.0039 45.8558L86.2645 44.1406L81.8483 48.4992L77.3967 44.1066L75.6675 45.8128L80.1192 50.2045L75.7019 54.5631L77.4402 56.2784L81.8585 51.9197L86.3091 56.3124L88.0373 54.6071L83.5866 50.2145L88.0039 45.8558Z" fill="#EC0000"/>
<path id="Vector_15" fill-rule="evenodd" clip-rule="evenodd" d="M68.7895 63.5519C68.4905 63.2699 68.2077 62.9728 67.9269 62.6728C67.8033 62.5408 67.6776 62.4097 67.558 62.2737C67.3147 61.9967 67.0826 61.7086 66.8566 61.4186C66.7177 61.2416 66.5809 61.0636 66.4481 60.8815C66.2494 60.6085 66.0599 60.3274 65.8754 60.0434C65.7355 59.8264 65.6007 59.6073 65.47 59.3853C65.3098 59.1143 65.1558 58.8402 65.0098 58.5612C64.877 58.3081 64.7544 58.0511 64.6317 57.7921C64.5071 57.525 64.3844 57.257 64.2719 56.9839C64.1543 56.6949 64.0499 56.3999 63.9455 56.1048C63.8543 55.8448 63.759 55.5857 63.679 55.3207C63.5786 54.9916 63.4986 54.6556 63.4175 54.3205C63.3587 54.0745 63.2908 53.8325 63.2411 53.5834C63.1631 53.1954 63.1103 52.7993 63.0587 52.4033C63.0303 52.1952 62.9897 51.9902 62.9695 51.7802C62.9086 51.1691 62.8742 50.55 62.8742 49.9229C62.8742 49.3108 62.9097 48.7067 62.9674 48.1086C62.9867 47.9056 63.0232 47.7076 63.0485 47.5065C63.0992 47.1165 63.1529 46.7284 63.2289 46.3464C63.2756 46.1083 63.3323 45.8743 63.3881 45.6403C63.4671 45.3052 63.5513 44.9722 63.6486 44.6441C63.7215 44.3961 63.8006 44.151 63.8837 43.907C63.9881 43.6029 64.0996 43.3039 64.2182 43.0069C64.3175 42.7588 64.4189 42.5118 64.5273 42.2687C64.654 41.9887 64.7919 41.7157 64.9308 41.4436C65.0554 41.2006 65.1771 40.9546 65.3109 40.7175C65.4598 40.4565 65.623 40.2054 65.7842 39.9514C65.9302 39.7204 66.068 39.4843 66.2241 39.2603C66.5292 38.8212 66.8525 38.3952 67.1931 37.9851C63.5421 41.6016 61.2859 46.5884 61.2859 52.0952C61.2859 62.4678 69.2861 70.994 79.5305 71.9972V68.6417C75.5096 68.1166 71.888 66.3643 69.051 63.786C68.9648 63.7069 68.8746 63.6319 68.7895 63.5519Z" fill="#C6ECF6"/>
</g>
</svg>
