<svg width="127" height="102" viewBox="0 0 127 102" fill="none" xmlns="http://www.w3.org/2000/svg">
<path fill-rule="evenodd" clip-rule="evenodd" d="M103.635 17.9293C122.648 32.8681 140.658 70.3504 110.044 92.9591C79.4307 115.568 62.1313 89.5461 51.1003 82.1867C43.8124 77.323 41.2784 76.467 27.7801 76.3715C9.22674 76.2409 0.103192 60.3948 0.513228 34.0768C0.876374 10.7818 17.8914 0.669555 42.0695 0.0637224C76.5903 -0.801322 89.5599 7.31462 103.635 17.9293Z" fill="#E5E5E5"/>
<path fill-rule="evenodd" clip-rule="evenodd" d="M21.0639 33.7526C21.0639 31.3112 23.0293 29.332 25.4536 29.332C27.8779 29.332 29.8433 31.3112 29.8433 33.7526V50.7391H34.4106V33.7526C34.4106 31.3112 36.3759 29.332 38.8002 29.332C41.2245 29.332 43.1899 31.3112 43.1899 33.7526V50.7391H47.7582V33.7526C47.7582 31.3112 49.7235 29.332 52.1479 29.332C54.5721 29.332 56.5375 31.3112 56.5375 33.7526V50.7391H61.1048V23.2043H63.7745V21.1618L39.0826 11.165L14.3906 21.1618V23.2043H17.0603V50.7391H21.0639V33.7526Z" fill="#0D4F80"/>
<path fill-rule="evenodd" clip-rule="evenodd" d="M34.4103 50.7393H29.8431H21.0637H17.0591H13.293V55.2213H65.2747V50.7393H34.4103Z" fill="#0F2B4A"/>
<path fill-rule="evenodd" clip-rule="evenodd" d="M47.7577 50.7389V33.7525C47.7577 31.3111 49.7231 29.3318 52.1474 29.3318C54.5717 29.3318 56.537 31.3111 56.537 33.7525V50.7389H61.1043V23.2042H63.774V21.1616L59.0023 19.2306C51.3692 24.5063 45.6686 32.4132 43.1904 41.6524V50.7389H47.7577Z" fill="#0F2B4A"/>
<path fill-rule="evenodd" clip-rule="evenodd" d="M23.9836 88.7542L22.8004 89.9458L20.862 87.9947L18.9205 89.9498L17.7363 88.7562L19.6778 86.8021L17.7393 84.85L18.9235 83.6584L20.861 85.6095L22.8024 83.6554L23.9866 84.848L22.0452 86.8021L23.9836 88.7542Z" fill="#0F2B4A"/>
<path fill-rule="evenodd" clip-rule="evenodd" d="M111.534 10.8046C109.621 10.8046 108.07 9.2413 108.07 7.31429C108.07 5.38728 109.621 3.82397 111.534 3.82397C113.448 3.82397 114.998 5.38728 114.998 7.31429C114.998 9.2413 113.448 10.8046 111.534 10.8046ZM111.534 8.81531C112.353 8.81531 113.019 8.14417 113.019 7.31429C113.019 6.48441 112.353 5.81328 111.534 5.81328C110.715 5.81328 110.05 6.48441 110.05 7.31429C110.05 8.14417 110.715 8.81531 111.534 8.81531Z" fill="#6EE3FF"/>
<path fill-rule="evenodd" clip-rule="evenodd" d="M113.058 90.3313L96.9033 74.0883C95.9865 73.167 94.493 73.166 93.5742 74.0873L93.5692 74.0924C93.1262 74.5374 92.8838 75.1302 92.8838 75.7602C92.8848 76.3901 93.1282 76.9809 93.5712 77.4259L109.726 93.6689C110.644 94.5912 112.138 94.5912 113.057 93.6699C113.973 92.7466 113.971 91.2506 113.058 90.3313Z" fill="#EC0000"/>
<path fill-rule="evenodd" clip-rule="evenodd" d="M109.726 93.6688L93.5711 77.4259C93.1281 76.9818 92.8847 76.3901 92.8837 75.7601C92.8837 75.1302 93.1261 74.5374 93.5691 74.0923L93.5741 74.0873C94.4919 73.166 95.9864 73.167 96.9022 74.0893L113.058 90.3312C113.971 91.2505 113.973 92.7465 113.057 93.6698C112.137 94.5912 110.644 94.5912 109.726 93.6688ZM114.326 89.0523L98.1712 72.8093C96.556 71.1837 93.9242 71.1817 92.305 72.8073L92.2981 72.8143C91.5169 73.602 91.0869 74.6479 91.0879 75.7611C91.0889 76.8743 91.5199 77.9202 92.302 78.7059L108.458 94.9488C109.265 95.7606 110.328 96.1675 111.389 96.1675C112.453 96.1675 113.519 95.7596 114.331 94.9438C115.942 93.3182 115.94 90.6759 114.326 89.0523Z" fill="#0F2B4A"/>
<path fill-rule="evenodd" clip-rule="evenodd" d="M77.3286 84.7828C60.2268 84.7828 46.3135 70.7723 46.3135 53.5498C46.3135 36.3273 60.2268 22.3168 77.3286 22.3168C94.4303 22.3168 108.343 36.3273 108.343 53.5498C108.343 70.7723 94.4303 84.7828 77.3286 84.7828Z" fill="#0F2B4A"/>
<path fill-rule="evenodd" clip-rule="evenodd" d="M77.3287 24.1255C61.2175 24.1255 48.1104 37.3252 48.1104 53.5501C48.1104 69.7749 61.2175 82.9746 77.3287 82.9746C93.4388 82.9746 106.546 69.7749 106.546 53.5501C106.546 37.3252 93.4388 24.1255 77.3287 24.1255Z" fill="#E5E5E5"/>
<path fill-rule="evenodd" clip-rule="evenodd" d="M91.5197 27.842L63.0596 79.2132C67.2826 81.6044 72.1482 82.9748 77.328 82.9748C93.4391 82.9748 106.545 69.7751 106.545 53.5502C106.545 42.5096 100.474 32.8756 91.5197 27.842Z" fill="#F5F5F5"/>
<path fill-rule="evenodd" clip-rule="evenodd" d="M77.3287 24.1255C61.2175 24.1255 48.1104 37.3252 48.1104 53.5501C48.1104 64.5585 54.1482 74.1685 63.0602 79.2141L91.5203 27.8419C87.3152 25.4788 82.4765 24.1255 77.3287 24.1255Z" fill="#E9F4F7"/>
<path fill-rule="evenodd" clip-rule="evenodd" d="M102.417 53.5502C102.417 67.5044 91.1847 78.8163 77.3283 78.8163C63.4718 78.8163 52.2393 67.5044 52.2393 53.5502C52.2393 39.596 63.4718 28.2841 77.3283 28.2841C91.1847 28.2841 102.417 39.596 102.417 53.5502Z" fill="white"/>
<path fill-rule="evenodd" clip-rule="evenodd" d="M71.326 52.0091L70.0959 53.2479L67.8891 51.0255L65.6823 53.2479L64.4521 52.0091L66.659 49.7867L64.4521 47.5643L65.6823 46.3255L67.8891 48.5479L70.0959 46.3255L71.326 47.5643L69.1192 49.7867L71.326 52.0091Z" fill="#172C49"/>
<path fill-rule="evenodd" clip-rule="evenodd" d="M90.2811 52.0091L89.051 53.2479L86.8441 51.0255L84.6373 53.2479L83.4072 52.0091L85.614 49.7867L83.4072 47.5643L84.6373 46.3255L86.8441 48.5479L89.051 46.3255L90.2811 47.5643L88.0743 49.7867L90.2811 52.0091Z" fill="#172C49"/>
<path fill-rule="evenodd" clip-rule="evenodd" d="M73.4112 63.3089C73.2845 63.3089 73.1548 63.2818 73.0321 63.2235C72.5832 63.0125 72.3896 62.474 72.5991 62.0219C73.3015 60.5078 75.2319 59.491 77.4038 59.491C79.5717 59.491 81.5012 60.5048 82.2055 62.0148C82.417 62.4679 82.2245 63.0055 81.7755 63.2185C81.3236 63.4315 80.7909 63.2355 80.5814 62.7844C80.2362 62.046 79.035 61.2995 77.4038 61.2995C75.7707 61.2995 74.5685 62.048 74.2253 62.7864C74.0727 63.116 73.7494 63.3089 73.4112 63.3089Z" fill="#EC0000"/>
<path fill-rule="evenodd" clip-rule="evenodd" d="M59.0345 37.3801C58.8151 37.3801 58.5966 37.2998 58.424 37.139C58.0598 36.7984 58.0389 36.2267 58.3771 35.861C58.8829 35.3115 59.4196 34.777 59.9713 34.2716C60.3405 33.937 60.9071 33.9642 61.2404 34.3329C61.5736 34.7026 61.5466 35.2743 61.1795 35.6109C60.6647 36.0811 60.1649 36.5794 59.692 37.0908C59.5154 37.2827 59.275 37.3801 59.0345 37.3801ZM77.3275 79.5714C63.08 79.5714 51.4883 67.8978 51.4883 53.5497C51.4883 48.4248 52.9668 43.4656 55.7642 39.2087C56.0386 38.7917 56.5943 38.6782 57.0093 38.9535C57.4223 39.2288 57.5351 39.7894 57.2627 40.2064C54.6588 44.1659 53.2841 48.7804 53.2841 53.5497C53.2841 66.9012 64.0697 77.763 77.3275 77.763C90.5854 77.763 101.371 66.9012 101.371 53.5497C101.371 40.1993 90.5854 29.3365 77.3275 29.3365C73.0256 29.3365 68.8056 30.4939 65.1242 32.6842C64.8389 32.853 64.5595 33.0268 64.2832 33.2066C63.8672 33.4789 63.3095 33.3573 63.0421 32.9384C62.7727 32.5184 62.8915 31.9588 63.3085 31.6875C63.6048 31.4946 63.9061 31.3077 64.2104 31.1259C68.1691 28.7729 72.7054 27.5281 77.3275 27.5281C91.575 27.5281 103.167 39.2017 103.167 53.5497C103.167 67.8978 91.575 79.5714 77.3275 79.5714Z" fill="#0F2B4A"/>
</svg>
